<svg width="24" height="24" viewBox="0 0 24 24" fill="none" xmlns="http://www.w3.org/2000/svg">
<path d="M2.05176 12.822C1.98275 12.6146 1.98275 12.3904 2.05176 12.183C3.43876 8.01 7.37576 5 12.0158 5C16.6538 5 20.5888 8.007 21.9788 12.178C22.0488 12.385 22.0488 12.609 21.9788 12.817C20.5928 16.99 16.6558 20 12.0158 20C7.37776 20 3.44276 16.993 2.05276 12.822H2.05176Z" stroke="#1E98B0" stroke-width="1.5" stroke-linecap="round" stroke-linejoin="round"/>
<path d="M15.0156 12.5C15.0156 13.2956 14.6996 14.0587 14.1369 14.6213C13.5743 15.1839 12.8113 15.5 12.0156 15.5C11.22 15.5 10.4569 15.1839 9.8943 14.6213C9.3317 14.0587 9.01562 13.2956 9.01562 12.5C9.01562 11.7044 9.3317 10.9413 9.8943 10.3787C10.4569 9.81607 11.22 9.5 12.0156 9.5C12.8113 9.5 13.5743 9.81607 14.1369 10.3787C14.6996 10.9413 15.0156 11.7044 15.0156 12.5V12.5Z" stroke="#1E98B0" stroke-width="1.5" stroke-linecap="round" stroke-linejoin="round"/>
</svg>
