<svg width="26" height="26" viewBox="0 0 26 26" fill="none" xmlns="http://www.w3.org/2000/svg">
<g opacity="0.5">
<path d="M22.1112 1H3.6389C2.18147 1 1 2.18147 1 3.6389V22.1112C1 23.5686 2.18147 24.7501 3.6389 24.7501H22.1112C23.5686 24.7501 24.7501 23.5686 24.7501 22.1112V3.6389C24.7501 2.18147 23.5686 1 22.1112 1Z" stroke="#878A99" stroke-width="2" stroke-linecap="round" stroke-linejoin="round"/>
<path d="M8.25652 10.2362C9.34958 10.2362 10.2357 9.35007 10.2357 8.257C10.2357 7.16394 9.34958 6.27783 8.25652 6.27783C7.16345 6.27783 6.27734 7.16394 6.27734 8.257C6.27734 9.35007 7.16345 10.2362 8.25652 10.2362Z" stroke="#878A99" stroke-width="2" stroke-linecap="round" stroke-linejoin="round"/>
<path d="M24.7498 16.8333L18.1526 10.2361L3.63867 24.75" stroke="#878A99" stroke-width="2" stroke-linecap="round" stroke-linejoin="round"/>
</g>
</svg>
