<svg width="187" height="148" viewBox="0 0 187 148" fill="none" xmlns="http://www.w3.org/2000/svg">
<g opacity="0.8">
<mask id="path-1-inside-1_2055_5811" fill="white">
<path fill-rule="evenodd" clip-rule="evenodd" d="M164.112 148C178.552 126.945 187 101.459 187 74C187 46.5409 178.552 21.055 164.112 0H12C5.37258 0 0 5.37258 0 12V136C0 142.627 5.37256 148 12 148H164.112Z"/>
</mask>
<path fill-rule="evenodd" clip-rule="evenodd" d="M164.112 148C178.552 126.945 187 101.459 187 74C187 46.5409 178.552 21.055 164.112 0H12C5.37258 0 0 5.37258 0 12V136C0 142.627 5.37256 148 12 148H164.112Z" fill="#1E98B0"/>
<path d="M164.112 148V148.5H164.376L164.525 148.283L164.112 148ZM164.112 0L164.525 -0.282785L164.376 -0.5H164.112V0ZM186.5 74C186.5 101.355 178.084 126.743 163.7 147.717L164.525 148.283C179.019 127.147 187.5 101.563 187.5 74H186.5ZM163.7 0.282785C178.084 21.2572 186.5 46.645 186.5 74H187.5C187.5 46.4368 179.019 20.8529 164.525 -0.282785L163.7 0.282785ZM12 0.5H164.112V-0.5H12V0.5ZM0.5 12C0.5 5.64873 5.64873 0.5 12 0.5V-0.5C5.09644 -0.5 -0.5 5.09644 -0.5 12H0.5ZM0.5 136V12H-0.5V136H0.5ZM12 147.5C5.64871 147.5 0.5 142.351 0.5 136H-0.5C-0.5 142.904 5.09642 148.5 12 148.5V147.5ZM164.112 147.5H12V148.5H164.112V147.5Z" fill="#252525" fill-opacity="0.12" mask="url(#path-1-inside-1_2055_5811)"/>
</g>
</svg>
