<svg width="14" height="14" viewBox="0 0 14 14" fill="none" xmlns="http://www.w3.org/2000/svg">
<path d="M10.6129 6.48831C10.6129 6.32051 10.4435 6.15271 10.2742 6.15271H7.79032V3.69162C7.79032 3.52382 7.62097 3.35602 7.45161 3.35602H6.54839C6.35081 3.35602 6.20968 3.52382 6.20968 3.69162V6.15271H3.72581C3.52823 6.15271 3.3871 6.32051 3.3871 6.48831V7.38325C3.3871 7.57902 3.52823 7.71885 3.72581 7.71885H6.20968V10.1799C6.20968 10.3757 6.35081 10.5155 6.54839 10.5155H7.45161C7.62097 10.5155 7.79032 10.3757 7.79032 10.1799V7.71885H10.2742C10.4435 7.71885 10.6129 7.57902 10.6129 7.38325V6.48831ZM14 6.93578C14 3.10432 10.8669 0 7 0C3.13306 0 0 3.10432 0 6.93578C0 10.7672 3.13306 13.8716 7 13.8716C10.8669 13.8716 14 10.7672 14 6.93578ZM12.6452 6.93578C12.6452 10.0401 10.1048 12.5292 7 12.5292C3.86694 12.5292 1.35484 10.0401 1.35484 6.93578C1.35484 3.85943 3.86694 1.34241 7 1.34241C10.1048 1.34241 12.6452 3.85943 12.6452 6.93578Z" fill="#1E98B0"/>
</svg>
