<svg width="38" height="38" viewBox="0 0 38 38" fill="none" xmlns="http://www.w3.org/2000/svg">
<rect x="0.941895" y="0.536377" width="36.9275" height="36.9275" rx="18.4638" fill="#1E98B0"/>
<path d="M16.1221 23.2949V22.2449C16.4861 21.8809 16.7661 21.5076 16.9621 21.1249C17.1581 20.7329 17.2561 20.2289 17.2561 19.6129C17.2561 19.4543 17.2421 19.2909 17.2141 19.1229H15.6181V17.8909H16.8221C16.7381 17.6483 16.6634 17.3963 16.5981 17.1349C16.5421 16.8736 16.5141 16.5983 16.5141 16.3089C16.5141 15.6929 16.6447 15.1609 16.9061 14.7129C17.1767 14.2649 17.5501 13.9243 18.0261 13.6909C18.5114 13.4483 19.0667 13.3269 19.6921 13.3269C20.4014 13.3269 20.9894 13.4623 21.4561 13.7329C21.9227 14.0036 22.2774 14.3676 22.5201 14.8249C22.7627 15.2823 22.8981 15.7909 22.9261 16.3509H21.2741C21.2554 15.9123 21.1154 15.5483 20.8541 15.2589C20.5927 14.9603 20.2147 14.8109 19.7201 14.8109C19.3094 14.8109 18.9547 14.9369 18.6561 15.1889C18.3574 15.4409 18.2081 15.8329 18.2081 16.3649C18.2081 16.6076 18.2454 16.8596 18.3201 17.1209C18.3947 17.3729 18.4787 17.6296 18.5721 17.8909H21.1901V19.1229H18.9081C18.9361 19.2909 18.9501 19.4543 18.9501 19.6129C18.9501 19.9956 18.8754 20.3829 18.7261 20.7749C18.5767 21.1669 18.3294 21.5309 17.9841 21.8669H22.9681V23.2949H16.1221Z" fill="white"/>
</svg>
