<svg xmlns="http://www.w3.org/2000/svg" viewBox="0 0 571.44 100"><defs><style>.cls-1{fill:#1e98b0;}.cls-2{fill:#4d4d4d;}</style></defs><g id="Layer_2" data-name="Layer 2"><g id="Layer_1-2" data-name="Layer 1"><path class="cls-1" d="M56.38,28.17v6.58h5.17v32A18.46,18.46,0,0,1,43.1,85.22h0A18.46,18.46,0,0,1,24.65,66.76v-32h5.17V28.17L10.73,21.64h-.31V67.32A32.68,32.68,0,0,0,43.1,100h0A32.68,32.68,0,0,0,75.78,67.32V21.64h-.31Z"/><polygon class="cls-1" points="43.1 0 0 14.76 43.1 29.52 86.2 14.76 43.1 0"/><path class="cls-1" d="M86.59,28.22A1.41,1.41,0,0,0,85.84,27l-.41-12.24H85l-.41,12.21a1.41,1.41,0,0,0-.81,1.28,1.39,1.39,0,0,0,.73,1.23l-.12,3.41c0,1.16.34,1.65.83,1.65s.87-.49.83-1.65l-.12-3.44A1.41,1.41,0,0,0,86.59,28.22Z"/><path class="cls-1" d="M131.73,15.33,158,84.57H142.12l-5.44-15.44H111l-5.64,15.44H89.78l26.31-69.24ZM133,58.06l-9.13-25.73-9.22,25.73Z"/><path class="cls-1" d="M230.74,15.43h29.81q11.65,0,18.5,5.58t6.84,16.66q0,10.88-6.79,16.46t-17.77,5.58H245.79V84.57h-15Zm15,12.43V47.77h13.5q11.83,0,11.84-9.91t-11.75-10Z"/><path class="cls-1" d="M166.54,15.43h29.81q11.66,0,18.5,5.58t6.84,16.66q0,10.88-6.8,16.46t-17.77,5.58H181.59V84.57H166.54Zm15.05,12.43V47.77h13.49q11.85,0,11.85-9.91t-11.75-10Z"/><rect class="cls-2" x="305.32" y="13.74" width="2.85" height="72.42"/><path class="cls-2" d="M342.42,21.13v8.08h-1.7l-.4-1.81a5.81,5.81,0,0,1-4.7,2.17,6.65,6.65,0,0,1-5.16-2.17,8,8,0,0,1-2-5.63,8.31,8.31,0,0,1,2-5.69,6.78,6.78,0,0,1,5.38-2.28,6.93,6.93,0,0,1,4.29,1.38,5.19,5.19,0,0,1,2.09,3.75h-2.57a3.22,3.22,0,0,0-1.26-2.13,4.65,4.65,0,0,0-6,.75,6.37,6.37,0,0,0-1.25,4.18,6.34,6.34,0,0,0,1.26,4.18,4.31,4.31,0,0,0,3.5,1.52,3.8,3.8,0,0,0,3-1.23,4.42,4.42,0,0,0,1.07-3H336v-2Z"/><path class="cls-2" d="M355.87,26.92v2.29H345.53V14.12h2.67v12.8Z"/><path class="cls-2" d="M364.52,13.76a6.73,6.73,0,0,1,5.2,2.19,8.16,8.16,0,0,1,2,5.71,8.11,8.11,0,0,1-2,5.71,7.35,7.35,0,0,1-10.48,0,8.09,8.09,0,0,1-2-5.72,8.26,8.26,0,0,1,2-5.66A6.72,6.72,0,0,1,364.52,13.76Zm0,2.23a4.07,4.07,0,0,0-3.32,1.53,6.25,6.25,0,0,0-1.25,4.1,6.46,6.46,0,0,0,1.24,4.17,4.06,4.06,0,0,0,3.38,1.55,4,4,0,0,0,3.29-1.56,6.42,6.42,0,0,0,1.24-4.14,6.35,6.35,0,0,0-1.24-4.12A4.08,4.08,0,0,0,364.47,16Z"/><path class="cls-2" d="M374.39,14.12h6.88a5.6,5.6,0,0,1,3.64,1,3.48,3.48,0,0,1-.9,5.94,3.67,3.67,0,0,1,2.07,1.27,3.73,3.73,0,0,1,.77,2.4A4.21,4.21,0,0,1,385.52,28a4.85,4.85,0,0,1-3.44,1.23h-7.69ZM377,16.26v4.15h3.61a4.22,4.22,0,0,0,2.24-.47,1.78,1.78,0,0,0,.72-1.6,1.73,1.73,0,0,0-.75-1.68,4.56,4.56,0,0,0-2.13-.4Zm0,6.06V27h4a4.75,4.75,0,0,0,2.39-.5,2,2,0,0,0,.87-1.85,2.61,2.61,0,0,0-.27-1.24,1.63,1.63,0,0,0-.76-.73,4.11,4.11,0,0,0-1-.32,8.94,8.94,0,0,0-1.25-.08Z"/><path class="cls-2" d="M396.51,14.1l5.82,15.11H399.5l-1.45-4h-6l-1.48,4h-2.74l5.83-15.11Zm.84,9.11-2.24-6.36-2.35,6.36Z"/><path class="cls-2" d="M414.37,26.92v2.29H404V14.12h2.67v12.8Z"/><path class="cls-2" d="M341.42,40.6v9.24q0,6.15-6.14,6.15a6.41,6.41,0,0,1-4.72-1.53,6.37,6.37,0,0,1-1.51-4.66V40.6h2.65v9.73c0,2.32,1.21,3.47,3.62,3.47a4.86,4.86,0,0,0,1.81-.29,2,2,0,0,0,1.05-.91,4.39,4.39,0,0,0,.47-1.33,10.83,10.83,0,0,0,.12-1.77V40.6Z"/><path class="cls-2" d="M357,40.6V55.69h-2.73l-7-11.1v11.1h-2.5V40.6h2.77l6.95,11.13V40.6Z"/><path class="cls-2" d="M363.05,40.6V55.69h-2.67V40.6Z"/><path class="cls-2" d="M364.85,40.6h2.78l3.81,11.93,3.9-11.93H378l-5.17,15.09h-2.94Z"/><path class="cls-2" d="M390.64,40.6v2.23H382.4v4H390V49H382.4v4.45h8.37v2.27h-11V40.6Z"/><path class="cls-2" d="M393.41,40.6h7.14a6.22,6.22,0,0,1,3.67,1,3.63,3.63,0,0,1,1.42,3.19,4,4,0,0,1-.66,2.32,3.71,3.71,0,0,1-1.84,1.39,2.91,2.91,0,0,1,.95.38,2.31,2.31,0,0,1,.63.55,2.56,2.56,0,0,1,.37.76,5.67,5.67,0,0,1,.2.82c0,.23.07.54.09.92a5.5,5.5,0,0,1,.06.57c0,.28,0,.47,0,.56s0,.25,0,.48,0,.38.05.48,0,.22.08.4.07.31.09.4l.11.32a1.28,1.28,0,0,0,.15.31,1.37,1.37,0,0,0,.19.23h-2.84a1.76,1.76,0,0,1-.12-.2c0-.08-.06-.16-.09-.26s-.05-.17-.07-.25,0-.18-.05-.32,0-.24,0-.33,0-.21,0-.38a3.46,3.46,0,0,1,0-.38c0-.08,0-.23,0-.44s0-.36,0-.45a4,4,0,0,0-.77-2.53,3.53,3.53,0,0,0-2.53-.69H396v6.23h-2.63ZM396,42.77v4.72h3.5a9.24,9.24,0,0,0,1.29-.08,5,5,0,0,0,1.07-.31,1.69,1.69,0,0,0,.83-.73,2.64,2.64,0,0,0,.28-1.3,2.5,2.5,0,0,0-.25-1.19,1.62,1.62,0,0,0-.73-.71,3.63,3.63,0,0,0-1-.32,6.71,6.71,0,0,0-1.17-.08Z"/><path class="cls-2" d="M419.49,45.05H417c-.15-1.76-1.25-2.64-3.28-2.64a3.49,3.49,0,0,0-2.12.56,1.78,1.78,0,0,0-.76,1.53,1.32,1.32,0,0,0,.56,1.25,11,11,0,0,0,2.49.83l.78.21a16.3,16.3,0,0,1,3.43,1.14,3.58,3.58,0,0,1,2,3.37,4.66,4.66,0,0,1-.34,1.8,4,4,0,0,1-.91,1.35,5,5,0,0,1-1.36.9,7.2,7.2,0,0,1-1.63.52,9.14,9.14,0,0,1-1.76.16,7.31,7.31,0,0,1-4.6-1.36,4.72,4.72,0,0,1-1.76-4h2.61a2.85,2.85,0,0,0,1.08,2.45,4.64,4.64,0,0,0,2.82.79,4,4,0,0,0,2.38-.62,2,2,0,0,0,.86-1.75,1.62,1.62,0,0,0-.45-1.18,2.71,2.71,0,0,0-1-.64c-.35-.13-1-.31-1.84-.53l-.24-.07a20.87,20.87,0,0,1-3.7-1.18,3.38,3.38,0,0,1-2-3v-.3a3.88,3.88,0,0,1,1.51-3.21,6.41,6.41,0,0,1,4.06-1.19,6.5,6.5,0,0,1,4,1.16A4.39,4.39,0,0,1,419.49,45.05Z"/><path class="cls-2" d="M425.36,40.6V55.69h-2.67V40.6Z"/><path class="cls-2" d="M439.69,40.6v2.29h-4.81v12.8h-2.65V42.89h-4.81V40.6Z"/><path class="cls-2" d="M454,40.6l-5.68,9.09v6h-2.61v-6L440,40.6h3.05l4,6.68,4-6.68Z"/><path class="cls-2" d="M474.56,50a6.52,6.52,0,0,1-2,4.44A6.42,6.42,0,0,1,468,56.05a6.55,6.55,0,0,1-5.13-2.16,8.34,8.34,0,0,1-1.93-5.74,9.19,9.19,0,0,1,.83-3.93,7.15,7.15,0,0,1,10.53-2.63,5.5,5.5,0,0,1,2.14,3.82H471.8a3.44,3.44,0,0,0-1.27-2.13,4.28,4.28,0,0,0-5,.08A4.55,4.55,0,0,0,464,45.45a8,8,0,0,0-.44,2.7,8.15,8.15,0,0,0,.26,2.07,6.36,6.36,0,0,0,.76,1.79A3.73,3.73,0,0,0,466,53.32a4.16,4.16,0,0,0,2,.48c2.25,0,3.53-1.28,3.86-3.85Z"/><path class="cls-2" d="M483.73,40.24a6.69,6.69,0,0,1,5.2,2.2,8.1,8.1,0,0,1,2,5.71,8.14,8.14,0,0,1-2,5.71,7.38,7.38,0,0,1-10.48,0,8.16,8.16,0,0,1-2-5.72,8.32,8.32,0,0,1,2-5.67A6.74,6.74,0,0,1,483.73,40.24Zm0,2.23A4.09,4.09,0,0,0,480.36,44a6.35,6.35,0,0,0-1.25,4.1,6.52,6.52,0,0,0,1.24,4.18,4.1,4.1,0,0,0,3.38,1.54,4,4,0,0,0,3.3-1.55,6.5,6.5,0,0,0,1.23-4.14A6.43,6.43,0,0,0,487,44,4.08,4.08,0,0,0,483.69,42.47Z"/><path class="cls-2" d="M503.94,53.4v2.29H493.6V40.6h2.67V53.4Z"/><path class="cls-2" d="M516.4,53.4v2.29H506.06V40.6h2.67V53.4Z"/><path class="cls-2" d="M529.39,40.6v2.23h-8.24v4h7.64V49h-7.64v4.45h8.36v2.27h-11V40.6Z"/><path class="cls-2" d="M545.43,47.62v8.07h-1.7l-.4-1.8a5.84,5.84,0,0,1-4.71,2.16,6.7,6.7,0,0,1-5.16-2.16,8,8,0,0,1-2-5.64,8.38,8.38,0,0,1,2-5.69,6.83,6.83,0,0,1,5.39-2.27,7,7,0,0,1,4.29,1.37,5.18,5.18,0,0,1,2.08,3.75h-2.56a3.26,3.26,0,0,0-1.26-2.13,4.65,4.65,0,0,0-6,.76,6.38,6.38,0,0,0-1.25,4.17,6.34,6.34,0,0,0,1.26,4.18,4.32,4.32,0,0,0,3.51,1.52,3.81,3.81,0,0,0,3-1.23,4.47,4.47,0,0,0,1.07-3H539v-2Z"/><path class="cls-2" d="M559.41,40.6v2.23h-8.24v4h7.65V49h-7.65v4.45h8.37v2.27h-11V40.6Z"/><path class="cls-2" d="M336.06,67.07l5.83,15.1h-2.84l-1.44-4h-6l-1.48,4h-2.73l5.82-15.1Zm.85,9.11-2.25-6.36-2.35,6.36Z"/><path class="cls-2" d="M343.65,67.09h6.54A5.89,5.89,0,0,1,354,68.24a4.2,4.2,0,0,1,1.41,3.45,4.5,4.5,0,0,1-1.32,3.42,4.93,4.93,0,0,1-3.58,1.26H346.3v5.8h-2.65Zm2.65,2.2v4.94H350c1.92,0,2.88-.83,2.88-2.48s-1-2.46-3.11-2.46Z"/><path class="cls-2" d="M358.07,67.09h6.55a5.89,5.89,0,0,1,3.85,1.15,4.2,4.2,0,0,1,1.41,3.45,4.5,4.5,0,0,1-1.32,3.42A5,5,0,0,1,365,76.37h-4.26v5.8h-2.65Zm2.65,2.2v4.94h3.69c1.92,0,2.88-.83,2.88-2.48s-1-2.46-3.11-2.46Z"/><path class="cls-2" d="M382.78,79.88v2.29H372.44V67.09h2.67V79.88Z"/><path class="cls-2" d="M387.61,67.09V82.17h-2.67V67.09Z"/><path class="cls-2" d="M404,76.43a6.52,6.52,0,0,1-2,4.44,6.42,6.42,0,0,1-4.59,1.66,6.55,6.55,0,0,1-5.13-2.16,8.31,8.31,0,0,1-1.92-5.74,9.19,9.19,0,0,1,.82-3.93,7.15,7.15,0,0,1,10.53-2.63,5.52,5.52,0,0,1,2.14,3.83h-2.63A3.39,3.39,0,0,0,400,69.77a3.85,3.85,0,0,0-2.46-.78,4,4,0,0,0-2.55.85,4.6,4.6,0,0,0-1.48,2.09,8.13,8.13,0,0,0-.43,2.7,8.23,8.23,0,0,0,.25,2.08,6.48,6.48,0,0,0,.76,1.79,3.7,3.7,0,0,0,1.39,1.3,4.11,4.11,0,0,0,2,.49c2.25,0,3.53-1.29,3.86-3.86Z"/><path class="cls-2" d="M413.58,67.07l5.83,15.1h-2.84l-1.44-4h-6l-1.48,4h-2.73l5.83-15.1Zm.85,9.11-2.25-6.36-2.35,6.36Z"/><path class="cls-2" d="M430,67.09v2.29h-4.81V82.17h-2.65V69.38h-4.8V67.09Z"/><path class="cls-2" d="M434.73,67.09V82.17h-2.67V67.09Z"/><path class="cls-2" d="M444.73,66.73a6.73,6.73,0,0,1,5.2,2.19,9.13,9.13,0,0,1,0,11.42,7.38,7.38,0,0,1-10.48,0,8.14,8.14,0,0,1-2-5.72,8.27,8.27,0,0,1,2-5.67A6.71,6.71,0,0,1,444.73,66.73ZM444.68,69a4,4,0,0,0-3.32,1.54,6.25,6.25,0,0,0-1.25,4.1,6.46,6.46,0,0,0,1.24,4.17,4.09,4.09,0,0,0,3.38,1.55A4,4,0,0,0,448,78.75a6.44,6.44,0,0,0,1.24-4.14A6.35,6.35,0,0,0,448,70.49,4.06,4.06,0,0,0,444.68,69Z"/><path class="cls-2" d="M466.85,67.09V82.17h-2.74l-7-11.1v11.1h-2.5V67.09h2.77l6.95,11.12V67.09Z"/><path class="cls-2" d="M481.06,71.54h-2.52c-.16-1.77-1.25-2.65-3.28-2.65a3.54,3.54,0,0,0-2.12.56,1.81,1.81,0,0,0-.77,1.54,1.34,1.34,0,0,0,.57,1.25,11.18,11.18,0,0,0,2.48.82c.34.1.6.17.79.21a16.37,16.37,0,0,1,3.43,1.15,3.57,3.57,0,0,1,2,3.37,4.55,4.55,0,0,1-.34,1.8,3.66,3.66,0,0,1-.91,1.34,5,5,0,0,1-1.35.9,6.87,6.87,0,0,1-1.63.52,9.29,9.29,0,0,1-1.76.16,7.35,7.35,0,0,1-4.6-1.35,4.75,4.75,0,0,1-1.76-4h2.61A2.85,2.85,0,0,0,473,79.62a4.64,4.64,0,0,0,2.82.79,4,4,0,0,0,2.38-.62,2.05,2.05,0,0,0,.86-1.75,1.55,1.55,0,0,0-.46-1.17,2.62,2.62,0,0,0-1-.65c-.36-.13-1-.3-1.85-.53l-.23-.06a20.82,20.82,0,0,1-3.71-1.19,3.42,3.42,0,0,1-2-3V71.2A3.89,3.89,0,0,1,471.37,68a6.34,6.34,0,0,1,4.05-1.2,6.47,6.47,0,0,1,4,1.17A4.4,4.4,0,0,1,481.06,71.54Z"/><path class="cls-2" d="M490.17,67.09h6.55a5.88,5.88,0,0,1,3.84,1.15A4.2,4.2,0,0,1,502,71.69a4.54,4.54,0,0,1-1.31,3.42,5,5,0,0,1-3.58,1.26h-4.26v5.8h-2.65Zm2.65,2.2v4.94h3.69c1.92,0,2.88-.83,2.88-2.48s-1-2.46-3.12-2.46Z"/><path class="cls-2" d="M511.06,66.73a6.72,6.72,0,0,1,5.2,2.19,9.13,9.13,0,0,1,0,11.42,7.38,7.38,0,0,1-10.48,0,8.14,8.14,0,0,1-2-5.72,8.32,8.32,0,0,1,2-5.67A6.74,6.74,0,0,1,511.06,66.73ZM511,69a4.07,4.07,0,0,0-3.33,1.54,6.31,6.31,0,0,0-1.25,4.1,6.51,6.51,0,0,0,1.24,4.17,4.11,4.11,0,0,0,3.38,1.55,4,4,0,0,0,3.3-1.56,6.5,6.5,0,0,0,1.24-4.14,6.4,6.4,0,0,0-1.24-4.12A4.06,4.06,0,0,0,511,69Z"/><path class="cls-2" d="M520.93,67.09h7.14a6.22,6.22,0,0,1,3.67,1,3.65,3.65,0,0,1,1.42,3.19,4,4,0,0,1-.66,2.32A3.6,3.6,0,0,1,530.66,75a2.91,2.91,0,0,1,1,.38,2.49,2.49,0,0,1,.63.55,2.63,2.63,0,0,1,.37.77,5.91,5.91,0,0,1,.2.81c0,.23.07.54.09.92A5.5,5.5,0,0,1,533,79c0,.29,0,.47,0,.57s0,.25,0,.47a4.29,4.29,0,0,0,.06.48,3.41,3.41,0,0,0,.07.4c0,.18.07.31.09.4s.07.2.11.32a1.28,1.28,0,0,0,.15.31,1.37,1.37,0,0,0,.19.23h-2.84a1.17,1.17,0,0,1-.12-.2l-.09-.25a1.38,1.38,0,0,1-.06-.26,2.86,2.86,0,0,1-.06-.31c0-.14,0-.25,0-.33s0-.22,0-.38l0-.39c0-.08,0-.23,0-.44s0-.36,0-.45a4,4,0,0,0-.77-2.53,3.53,3.53,0,0,0-2.53-.69h-3.52v6.23h-2.63Zm2.63,2.16V74h3.5a9.24,9.24,0,0,0,1.29-.08,5,5,0,0,0,1.07-.31,1.65,1.65,0,0,0,.83-.73,2.62,2.62,0,0,0,.28-1.29,2.54,2.54,0,0,0-.25-1.2,1.67,1.67,0,0,0-.73-.71,4,4,0,0,0-1-.32,7.86,7.86,0,0,0-1.17-.08Z"/><path class="cls-2" d="M546.61,67.09v2.29H541.8V82.17h-2.65V69.38h-4.8V67.09Z"/><path class="cls-2" d="M553.58,67.07l5.83,15.1h-2.84l-1.44-4h-6l-1.48,4h-2.73l5.83-15.1Zm.85,9.11-2.25-6.36-2.35,6.36Z"/><path class="cls-2" d="M571.44,79.88v2.29H561.1V67.09h2.67V79.88Z"/></g></g></svg>