<svg xmlns="http://www.w3.org/2000/svg" xmlns:xlink="http://www.w3.org/1999/xlink" preserveAspectRatio="xMidYMid meet" width="500" height="500" viewBox="0 0 500 500" style="width:100%;height:100%"><defs><animateTransform repeatCount="indefinite" dur="3s" begin="0s" xlink:href="#_R_G_L_2_G_N_1_T_0" fill="freeze" attributeName="transform" from="0" to="0" type="rotate" additive="sum" keyTimes="0;0.0305556;0.0763889;0.8474111;0.9288889;0.9638129;1" values="0;-20;0;0;20;0;0" keySplines="0.588 0 0.202 1;0.77 0 0.035 1;0.77 0 0.76 1;1 0 0.419 1;1 0 0.76 1;0 0 0 0" calcMode="spline"/><animateTransform repeatCount="indefinite" dur="3s" begin="0s" xlink:href="#_R_G_L_2_G_N_1_T_0" fill="freeze" attributeName="transform" from="0.78 0.78" to="0.78 0.78" type="scale" additive="sum" keyTimes="0;0.0763889;0.6875;0.7638889;0.8474111;0.9288889;0.9638129;1" values="0.78 0.78;1 1;1 1;0.85 0.85;1 1;1 1;0.78 0.78;0.78 0.78" keySplines="0.9 0 0.1 1;0.9 0 0.1 1;0.9 0 0.1 1;0.9 0 0.1 1;0.9 0 0.1 1;0.9 0 0.1 1;0 0 0 0" calcMode="spline"/><animate repeatCount="indefinite" dur="3s" begin="0s" xlink:href="#_R_G_L_1_G" fill="freeze" attributeName="opacity" from="0.1" to="1" keyTimes="0;0.0555556;0.6888889;1" values="0.1;0.1;1;1" keySplines="0.26 0 0.1 1;0.26 0 0.1 1;0 0 0 0" calcMode="spline"/><animateTransform repeatCount="indefinite" dur="3s" begin="0s" xlink:href="#_R_G_L_1_G" fill="freeze" attributeName="transform" from="1 0" to="1 0.75" type="scale" additive="sum" keyTimes="0;0.0703667;0.6888889;1" values="1 0;1 0;1 0.75;1 0.75" keySplines="0.26 0 0.18 1;0.26 0 0.18 1;0 0 0 0" calcMode="spline"/><animateTransform repeatCount="indefinite" dur="3s" begin="0s" xlink:href="#_R_G_L_1_G" fill="freeze" attributeName="transform" from="-6.5 -194" to="-6.5 -194" type="translate" additive="sum" keyTimes="0;1" values="-6.5 -194;-6.5 -194" keySplines="0 0 1 1" calcMode="spline"/><animateTransform repeatCount="indefinite" dur="3s" begin="0s" xlink:href="#_R_G_L_1_G_N_1_T_0" fill="freeze" attributeName="transform" from="0" to="0" type="rotate" additive="sum" keyTimes="0;0.0305556;0.0763889;0.8474111;0.9288889;0.9638129;1" values="0;-20;0;0;20;0;0" keySplines="0.588 0 0.202 1;0.77 0 0.035 1;0.77 0 0.76 1;1 0 0.419 1;1 0 0.76 1;0 0 0 0" calcMode="spline"/><animateTransform repeatCount="indefinite" dur="3s" begin="0s" xlink:href="#_R_G_L_1_G_N_1_T_0" fill="freeze" attributeName="transform" from="0.78 0.78" to="0.78 0.78" type="scale" additive="sum" keyTimes="0;0.0763889;0.6875;0.7638889;0.8474111;0.9288889;0.9638129;1" values="0.78 0.78;1 1;1 1;0.85 0.85;1 1;1 1;0.78 0.78;0.78 0.78" keySplines="0.9 0 0.1 1;0.9 0 0.1 1;0.9 0 0.1 1;0.9 0 0.1 1;0.9 0 0.1 1;0.9 0 0.1 1;0 0 0 0" calcMode="spline"/><animate repeatCount="indefinite" dur="3s" begin="0s" xlink:href="#_R_G_L_1_G_N_1_T_0_M" fill="freeze" attributeName="opacity" from="0" to="1" keyTimes="0;0.0222222;0.0222233;1" values="0;0;1;1" keySplines="0 0 0 0;0 0 0 0;0 0 0 0" calcMode="spline"/><animateTransform repeatCount="indefinite" dur="3s" begin="0s" xlink:href="#_R_G_L_0_G_N_1_T_0" fill="freeze" attributeName="transform" from="0" to="0" type="rotate" additive="sum" keyTimes="0;0.0305556;0.0763889;0.8474111;0.9288889;0.9638129;1" values="0;-20;0;0;20;0;0" keySplines="0.588 0 0.202 1;0.77 0 0.035 1;0.77 0 0.76 1;1 0 0.419 1;1 0 0.76 1;0 0 0 0" calcMode="spline"/><animateTransform repeatCount="indefinite" dur="3s" begin="0s" xlink:href="#_R_G_L_0_G_N_1_T_0" fill="freeze" attributeName="transform" from="0.78 0.78" to="0.78 0.78" type="scale" additive="sum" keyTimes="0;0.0763889;0.6875;0.7638889;0.8474111;0.9288889;0.9638129;1" values="0.78 0.78;1 1;1 1;0.85 0.85;1 1;1 1;0.78 0.78;0.78 0.78" keySplines="0.9 0 0.1 1;0.9 0 0.1 1;0.9 0 0.1 1;0.9 0 0.1 1;0.9 0 0.1 1;0.9 0 0.1 1;0 0 0 0" calcMode="spline"/><animate attributeType="XML" attributeName="opacity" dur="3s" from="0" to="1" xlink:href="#time_group"/></defs><g id="_R_G"><g id="_R_G_L_2_G_N_1_T_0" transform=" translate(250, 250)"><g id="_R_G_L_2_G" transform=" translate(0, 0) scale(0.6872400000000001, 0.6872400000000001) translate(-218.139, -252)"><path id="_R_G_L_2_G_D_0_P_0" fill="#eaf6f9" fill-opacity="1" fill-rule="nonzero" d=" M283.92 142.29 C283.92,142.29 283.92,175.37 283.92,175.37 C283.92,175.37 309.9,175.37 309.9,175.37 C309.9,175.37 309.9,336.26 309.9,336.26 C309.9,387.48 268.38,429 217.16,429 C165.94,429 124.42,387.48 124.42,336.26 C124.42,336.26 124.42,175.37 124.42,175.37 C124.42,175.37 150.4,175.37 150.4,175.37 C150.4,175.37 150.4,142.29 150.4,142.29 C150.4,142.29 54.47,109.44 54.47,109.44 C54.47,109.44 52.91,109.44 52.91,109.44 C52.91,109.44 52.91,339.06 52.91,339.06 C52.91,429.77 126.45,503.31 217.16,503.31 C307.88,503.31 381.41,429.77 381.41,339.06 C381.41,339.06 381.41,109.44 381.41,109.44 C381.41,109.44 379.85,109.44 379.85,109.44 C379.85,109.44 283.92,142.29 283.92,142.29z "/><path id="_R_G_L_2_G_D_1_P_0" fill="#eaf6f9" fill-opacity="1" fill-rule="nonzero" d=" M217.16 0.69 C217.16,0.69 0.52,74.88 0.52,74.88 C0.52,74.88 217.16,149.07 217.16,149.07 C217.16,149.07 433.79,74.88 433.79,74.88 C433.79,74.88 217.16,0.69 217.16,0.69z "/><path id="_R_G_L_2_G_D_2_P_0" fill="#eaf6f9" fill-opacity="1" fill-rule="nonzero" d=" M435.76 142.52 C435.76,139.8 434.22,137.44 431.98,136.24 C431.98,136.24 429.92,74.74 429.92,74.74 C429.92,74.74 427.69,74.74 427.69,74.74 C427.69,74.74 425.65,136.09 425.65,136.09 C423.23,137.23 421.55,139.67 421.55,142.52 C421.55,145.19 423.04,147.52 425.22,148.73 C425.22,148.73 424.65,165.84 424.65,165.84 C424.46,171.66 426.34,174.15 428.81,174.15 C431.28,174.15 433.16,171.66 432.97,165.84 C432.97,165.84 432.39,148.55 432.39,148.55 C434.41,147.3 435.76,145.07 435.76,142.52z "/></g></g><g id="_R_G_L_1_G_N_1_T_0_M"><g id="_R_G_L_1_G_N_1_T_0" transform=" translate(250, 250)"><g id="_R_G_L_1_G" transform=" translate(0, 197.152)"><path id="_R_G_L_1_G_D_0_P_0" fill="#31a1b8" fill-opacity="1" fill-rule="nonzero" d=" M172 -332.41 C172,-332.41 172,194 172,194 C172,194 -159,194 -159,194 C-159,194 -159,-320.94 -159,-320.94 C-159,-320.94 -120.5,-367.58 -87.5,-367.02 C-54.5,-366.46 -36,-315.71 6,-316.13 C48,-316.55 70.51,-362.96 98.01,-362.41 C125.5,-361.85 172,-332.41 172,-332.41z "/></g></g></g><g id="_R_G_L_0_G_N_1_T_0" transform=" translate(250, 250)"><g id="_R_G_L_0_G" transform=" translate(0, 0) scale(0.6872400000000001, 0.6872400000000001) translate(-218.139, -252)"><path id="_R_G_L_0_G_D_0_P_0" fill="#eaf6f9" fill-opacity="1" fill-rule="nonzero" d=" M283.92 142.29 C283.92,142.29 283.92,175.37 283.92,175.37 C283.92,175.37 309.9,175.37 309.9,175.37 C309.9,175.37 309.9,336.26 309.9,336.26 C309.9,387.48 268.38,429 217.16,429 C165.94,429 124.42,387.48 124.42,336.26 C124.42,336.26 124.42,175.37 124.42,175.37 C124.42,175.37 150.4,175.37 150.4,175.37 C150.4,175.37 150.4,142.29 150.4,142.29 C150.4,142.29 54.47,109.44 54.47,109.44 C54.47,109.44 52.91,109.44 52.91,109.44 C52.91,109.44 52.91,339.06 52.91,339.06 C52.91,429.77 126.45,503.31 217.16,503.31 C307.88,503.31 381.41,429.77 381.41,339.06 C381.41,339.06 381.41,109.44 381.41,109.44 C381.41,109.44 379.85,109.44 379.85,109.44 C379.85,109.44 283.92,142.29 283.92,142.29z "/><path id="_R_G_L_0_G_D_1_P_0" fill="#eaf6f9" fill-opacity="1" fill-rule="nonzero" d=" M217.16 0.69 C217.16,0.69 0.52,74.88 0.52,74.88 C0.52,74.88 217.16,149.07 217.16,149.07 C217.16,149.07 433.79,74.88 433.79,74.88 C433.79,74.88 217.16,0.69 217.16,0.69z "/><path id="_R_G_L_0_G_D_2_P_0" fill="#eaf6f9" fill-opacity="1" fill-rule="nonzero" d=" M435.76 142.52 C435.76,139.8 434.22,137.44 431.98,136.24 C431.98,136.24 429.92,74.74 429.92,74.74 C429.92,74.74 427.69,74.74 427.69,74.74 C427.69,74.74 425.65,136.09 425.65,136.09 C423.23,137.23 421.55,139.67 421.55,142.52 C421.55,145.19 423.04,147.52 425.22,148.73 C425.22,148.73 424.65,165.84 424.65,165.84 C424.46,171.66 426.34,174.15 428.81,174.15 C431.28,174.15 433.16,171.66 432.97,165.84 C432.97,165.84 432.39,148.55 432.39,148.55 C434.41,147.3 435.76,145.07 435.76,142.52z "/></g></g></g><g id="time_group"/></svg>