<svg width="12" height="11" viewBox="0 0 12 11" fill="none" xmlns="http://www.w3.org/2000/svg">
<path fill-rule="evenodd" clip-rule="evenodd" d="M4.78223 10.9434C5.03418 10.9434 5.2334 10.832 5.37402 10.6152L10.9111 1.89648C11.0166 1.72656 11.0576 1.59766 11.0576 1.46289C11.0576 1.14062 10.8467 0.929688 10.5244 0.929688C10.29 0.929688 10.1611 1.00586 10.0205 1.22852L4.75879 9.61328L2.02832 6.03906C1.88184 5.83398 1.73535 5.75195 1.52441 5.75195C1.19043 5.75195 0.961914 5.98047 0.961914 6.30273C0.961914 6.4375 1.02051 6.58984 1.13184 6.73047L4.17285 10.6035C4.34863 10.832 4.53027 10.9434 4.78223 10.9434Z" fill="white"/>
</svg>
